<svg width="1693" height="230" viewBox="0 0 1693 230" fill="none" xmlns="http://www.w3.org/2000/svg">
<path d="M193.538 90.3162C198.398 95.2614 206.804 93.1073 208.67 86.4388L229.658 11.4188C231.524 4.75034 225.45 -1.4311 218.725 0.292202L143.068 19.6794C136.343 21.4027 134.011 29.7383 138.87 34.6834L193.538 90.3162Z" fill="#3067FF"/>
<path d="M36.7754 64.6652C31.8155 59.8202 33.9761 51.4389 40.6643 49.5787L115.907 28.6523C122.596 26.7921 128.796 32.8484 127.067 39.5535L107.622 114.986C105.894 121.691 97.5335 124.016 92.5737 119.171L36.7754 64.6652Z" fill="#3067FF"/>
<path d="M111.038 138.707C106.078 133.862 108.238 125.481 114.927 123.621L190.17 102.694C196.858 100.834 203.058 106.89 201.329 113.596L181.884 189.028C180.156 195.733 171.796 198.058 166.836 193.213L111.038 138.707Z" fill="#3067FF"/>
<path d="M65.5126 203.708C69.0996 207.212 67.5371 213.274 62.7 214.619L8.28283 229.754C3.44575 231.099 -1.03808 226.719 0.211954 221.87L14.2748 167.316C15.5248 162.466 21.5712 160.785 25.1582 164.289L65.5126 203.708Z" fill="#3067FF"/>
<path d="M47.239 90.3346C43.7246 86.7582 37.645 88.3161 36.2957 93.1388L21.1164 147.395C19.7671 152.217 24.1601 156.688 29.0238 155.442L83.7401 141.42C88.6038 140.174 90.2904 134.146 86.776 130.569L47.239 90.3346Z" fill="#3067FF"/>
<path d="M139.2 182.023C142.787 185.527 141.224 191.588 136.387 192.933L81.97 208.068C77.1329 209.413 72.6491 205.033 73.8991 200.184L87.962 145.63C89.212 140.781 95.2584 139.099 98.8454 142.603L139.2 182.023Z" fill="#3067FF"/>
<path d="M335.797 184.486C321.645 184.486 309.98 180.789 300.801 173.394C291.749 166 286.267 156.183 284.355 143.944L308.45 138.016C309.853 146.175 313.04 152.295 318.012 156.375C323.112 160.454 329.359 162.494 336.753 162.494C340.705 162.494 344.211 161.857 347.271 160.582C350.458 159.179 352.944 157.203 354.729 154.653C356.641 151.976 357.598 148.853 357.598 145.283C357.598 141.968 356.641 139.1 354.729 136.677C352.817 134.255 349.884 132.024 345.932 129.984C342.108 127.944 337.263 125.841 331.398 123.673C322.984 120.359 315.908 116.853 310.171 113.155C304.562 109.331 300.355 104.932 297.55 99.9602C294.745 94.988 293.343 89.1235 293.343 82.3665C293.343 75.2271 295.064 68.9163 298.506 63.4343C302.076 57.9522 306.984 53.6175 313.231 50.4303C319.606 47.243 327 45.6494 335.414 45.6494C344.339 45.6494 352.243 47.753 359.127 51.9602C366.139 56.0398 371.749 62.1594 375.956 70.3187L356.259 82.3665C353.582 77.5219 350.394 73.8885 346.697 71.4661C343.127 68.9163 339.112 67.6414 334.649 67.6414C331.462 67.6414 328.594 68.2789 326.044 69.5538C323.622 70.7012 321.645 72.3586 320.116 74.5259C318.713 76.5657 318.012 78.9881 318.012 81.7928C318.012 84.7251 318.841 87.3386 320.498 89.6335C322.283 91.9283 325.088 94.1594 328.912 96.3267C332.865 98.3665 337.964 100.534 344.211 102.829C352.498 105.888 359.382 109.267 364.865 112.964C370.474 116.661 374.745 120.996 377.677 125.968C380.61 130.813 382.076 136.741 382.076 143.753C382.076 151.657 380.1 158.733 376.147 164.98C372.323 171.1 366.968 175.88 360.084 179.323C353.199 182.765 345.104 184.486 335.797 184.486ZM442.161 183.912C434.511 183.912 427.818 182.574 422.081 179.896C416.472 177.092 411.691 173.394 407.739 168.805C403.914 164.215 401.045 158.988 399.133 153.124C397.221 147.259 396.264 141.139 396.264 134.765C396.264 128.518 397.221 122.462 399.133 116.598C401.045 110.733 403.914 105.506 407.739 100.916C411.691 96.3267 416.472 92.6932 422.081 90.0159C427.818 87.2112 434.511 85.8088 442.161 85.8088C451.723 85.8088 460.009 88.1036 467.021 92.6932C474.033 97.2829 479.26 104.231 482.703 113.538L462.049 121.761C460.519 117.299 458.161 113.665 454.974 110.861C451.914 107.928 447.643 106.462 442.161 106.462C437.061 106.462 432.854 107.865 429.539 110.669C426.225 113.347 423.802 116.853 422.272 121.187C420.743 125.522 419.978 130.048 419.978 134.765C419.978 139.482 420.743 144.072 422.272 148.534C423.802 152.869 426.225 156.438 429.539 159.243C432.854 161.92 437.061 163.259 442.161 163.259C447.643 163.259 451.914 161.857 454.974 159.052C458.161 156.12 460.519 152.359 462.049 147.769L482.703 155.992C479.26 165.426 474.033 172.438 467.021 177.028C460.009 181.618 451.723 183.912 442.161 183.912ZM561.006 182L559.094 167.849V122.526C559.094 116.916 557.309 112.773 553.739 110.096C550.297 107.291 545.58 105.888 539.588 105.888C534.616 105.888 529.516 106.908 524.289 108.948C519.189 110.861 514.663 113.602 510.711 117.171L498.663 100.916C505.293 95.5618 512.05 91.7371 518.934 89.4422C525.946 87.0199 533.468 85.8088 541.5 85.8088C554.504 85.8088 564.639 89.0598 571.906 95.5618C579.173 102.064 582.807 111.052 582.807 122.526V182H561.006ZM532.512 183.912C525.627 183.912 519.444 182.637 513.962 180.088C508.608 177.538 504.337 173.904 501.149 169.187C498.09 164.47 496.56 159.052 496.56 152.932C496.56 147.45 497.643 142.797 499.811 138.972C502.106 135.02 505.102 132.024 508.799 129.984C511.986 128.072 515.492 126.733 519.317 125.968C523.269 125.203 527.476 124.821 531.938 124.821H561.197V142.414H535.38C533.341 142.414 531.301 142.606 529.261 142.988C527.349 143.243 525.691 143.944 524.289 145.092C523.014 145.984 522.058 147.131 521.42 148.534C520.783 149.809 520.464 151.275 520.464 152.932C520.464 156.502 521.867 159.371 524.671 161.538C527.476 163.705 531.237 164.789 535.954 164.789C540.161 164.789 543.986 163.896 547.428 162.112C550.998 160.199 553.803 157.649 555.843 154.462C558.01 151.147 559.094 147.386 559.094 143.179L565.404 155.801C563.747 162.43 561.197 167.849 557.755 172.056C554.44 176.135 550.616 179.131 546.281 181.044C541.946 182.956 537.357 183.912 532.512 183.912ZM626.963 183.912C620.461 183.912 615.106 181.936 610.899 177.984C606.692 174.032 604.588 167.785 604.588 159.243V48.7092H628.11V154.653C628.11 157.331 628.747 159.243 630.022 160.39C631.297 161.41 632.955 161.92 634.995 161.92C636.014 161.92 637.098 161.857 638.246 161.729C639.393 161.474 640.604 161.155 641.879 160.773V181.044C639.202 182.064 636.524 182.765 633.847 183.147C631.297 183.657 629.002 183.912 626.963 183.912ZM658.004 182V87.7211H681.717V182H658.004ZM657.239 73.1873V48.7092H682.673V73.1873H657.239ZM712.337 182V106.271H695.317V87.7211H712.528V77.7769C712.528 69.6175 713.867 63.3068 716.544 58.8446C719.222 54.3825 722.791 51.259 727.253 49.4741C731.843 47.6892 736.751 46.7968 741.979 46.7968C745.931 46.7968 749.309 47.1793 752.114 47.9442C755.046 48.5817 757.851 49.5378 760.528 50.8127L752.879 68.9801C751.604 68.3426 750.265 67.8327 748.863 67.4502C747.461 66.9402 746.058 66.6853 744.656 66.6853C741.596 66.6853 739.429 67.7052 738.154 69.745C736.879 71.7849 736.241 74.5259 736.241 77.9681V87.7211H756.321V106.271H736.241V182H712.337ZM779.204 221.012L798.327 174.733L762.757 87.7211H788.765L810.949 151.02L833.514 87.7211H859.14L805.02 221.012H779.204Z" fill="#3067FF"/>
<path d="M943.797 184.486C929.645 184.486 917.98 180.789 908.801 173.394C899.749 166 894.267 156.183 892.355 143.944L916.45 138.016C917.853 146.175 921.04 152.295 926.012 156.375C931.112 160.454 937.359 162.494 944.753 162.494C948.705 162.494 952.211 161.857 955.271 160.582C958.458 159.179 960.944 157.203 962.729 154.653C964.641 151.976 965.598 148.853 965.598 145.283C965.598 141.968 964.641 139.1 962.729 136.677C960.817 134.255 957.884 132.024 953.932 129.984C950.108 127.944 945.263 125.841 939.398 123.673C930.984 120.359 923.908 116.853 918.171 113.155C912.562 109.331 908.355 104.932 905.55 99.9602C902.745 94.988 901.343 89.1235 901.343 82.3665C901.343 75.2271 903.064 68.9163 906.506 63.4343C910.076 57.9522 914.984 53.6175 921.231 50.4303C927.606 47.243 935 45.6494 943.414 45.6494C952.339 45.6494 960.243 47.753 967.127 51.9602C974.139 56.0398 979.749 62.1594 983.956 70.3187L964.259 82.3665C961.582 77.5219 958.394 73.8885 954.697 71.4661C951.127 68.9163 947.112 67.6414 942.649 67.6414C939.462 67.6414 936.594 68.2789 934.044 69.5538C931.622 70.7012 929.645 72.3586 928.116 74.5259C926.713 76.5657 926.012 78.9881 926.012 81.7928C926.012 84.7251 926.841 87.3386 928.498 89.6335C930.283 91.9283 933.088 94.1594 936.912 96.3267C940.865 98.3665 945.964 100.534 952.211 102.829C960.498 105.888 967.382 109.267 972.865 112.964C978.474 116.661 982.745 120.996 985.677 125.968C988.61 130.813 990.076 136.741 990.076 143.753C990.076 151.657 988.1 158.733 984.147 164.98C980.323 171.1 974.968 175.88 968.084 179.323C961.199 182.765 953.104 184.486 943.797 184.486ZM1051.88 183.912C1042.7 183.912 1034.54 181.809 1027.4 177.602C1020.26 173.394 1014.59 167.594 1010.38 160.199C1006.3 152.677 1004.26 144.199 1004.26 134.765C1004.26 125.203 1006.3 116.789 1010.38 109.522C1014.46 102.127 1020.07 96.3267 1027.21 92.1195C1034.48 87.9124 1042.7 85.8088 1051.88 85.8088C1060.93 85.8088 1069.03 87.9124 1076.17 92.1195C1083.31 96.3267 1088.92 102.127 1093 109.522C1097.08 116.789 1099.12 125.203 1099.12 134.765C1099.12 144.199 1097.08 152.614 1093 160.008C1088.92 167.402 1083.31 173.267 1076.17 177.602C1069.03 181.809 1060.93 183.912 1051.88 183.912ZM1051.88 163.068C1056.73 163.068 1060.87 161.92 1064.31 159.625C1067.88 157.331 1070.56 154.08 1072.34 149.873C1074.26 145.665 1075.21 140.629 1075.21 134.765C1075.21 128.773 1074.26 123.737 1072.34 119.657C1070.56 115.45 1067.88 112.263 1064.31 110.096C1060.87 107.801 1056.73 106.653 1051.88 106.653C1046.91 106.653 1042.64 107.801 1039.07 110.096C1035.5 112.263 1032.76 115.45 1030.85 119.657C1028.93 123.737 1027.98 128.773 1027.98 134.765C1027.98 140.629 1028.93 145.665 1030.85 149.873C1032.76 154.08 1035.5 157.331 1039.07 159.625C1042.64 161.92 1046.91 163.068 1051.88 163.068ZM1140.09 183.912C1133.59 183.912 1128.24 181.936 1124.03 177.984C1119.82 174.032 1117.72 167.785 1117.72 159.243V48.7092H1141.24V154.653C1141.24 157.331 1141.88 159.243 1143.15 160.39C1144.43 161.41 1146.08 161.92 1148.12 161.92C1149.14 161.92 1150.23 161.857 1151.37 161.729C1152.52 161.474 1153.73 161.155 1155.01 160.773V181.044C1152.33 182.064 1149.65 182.765 1146.98 183.147C1144.43 183.657 1142.13 183.912 1140.09 183.912ZM1204.6 183.912C1196.95 183.912 1190.51 182.382 1185.28 179.323C1180.19 176.263 1176.36 171.928 1173.81 166.319C1171.39 160.709 1170.18 154.143 1170.18 146.622V87.7211H1193.89V140.693C1193.89 145.028 1194.4 148.916 1195.42 152.359C1196.44 155.673 1198.23 158.351 1200.77 160.39C1203.45 162.303 1207.09 163.259 1211.68 163.259C1217.28 163.259 1221.49 161.665 1224.3 158.478C1227.23 155.291 1229.21 150.892 1230.23 145.283C1231.37 139.546 1231.95 132.853 1231.95 125.203V87.7211H1255.66V182H1231.95V161.538L1235.2 163.45C1232.39 170.717 1228.25 175.944 1222.77 179.131C1217.28 182.319 1211.23 183.912 1204.6 183.912ZM1315.22 183.912C1310.12 183.912 1305.4 182.956 1301.07 181.044C1296.73 179.131 1293.23 176.008 1290.55 171.673C1288 167.339 1286.73 161.538 1286.73 154.271V65.7291L1310.82 52.9163V147.769C1310.82 153.251 1311.52 157.394 1312.93 160.199C1314.46 163.004 1317.39 164.406 1321.72 164.406C1323 164.406 1324.4 164.279 1325.93 164.024C1327.59 163.769 1329.37 163.386 1331.28 162.876V181.044C1328.61 182.064 1325.93 182.765 1323.25 183.147C1320.57 183.657 1317.9 183.912 1315.22 183.912ZM1269.51 106.271V87.7211H1331.28V106.271H1269.51ZM1349.3 182V87.7211H1373.01V182H1349.3ZM1348.53 73.1873V48.7092H1373.97V73.1873H1348.53ZM1439.58 183.912C1430.4 183.912 1422.24 181.809 1415.1 177.602C1407.96 173.394 1402.29 167.594 1398.08 160.199C1394 152.677 1391.96 144.199 1391.96 134.765C1391.96 125.203 1394 116.789 1398.08 109.522C1402.16 102.127 1407.77 96.3267 1414.91 92.1195C1422.18 87.9124 1430.4 85.8088 1439.58 85.8088C1448.63 85.8088 1456.73 87.9124 1463.87 92.1195C1471.01 96.3267 1476.62 102.127 1480.7 109.522C1484.78 116.789 1486.82 125.203 1486.82 134.765C1486.82 144.199 1484.78 152.614 1480.7 160.008C1476.62 167.402 1471.01 173.267 1463.87 177.602C1456.73 181.809 1448.63 183.912 1439.58 183.912ZM1439.58 163.068C1444.43 163.068 1448.57 161.92 1452.01 159.625C1455.58 157.331 1458.26 154.08 1460.04 149.873C1461.96 145.665 1462.91 140.629 1462.91 134.765C1462.91 128.773 1461.96 123.737 1460.04 119.657C1458.26 115.45 1455.58 112.263 1452.01 110.096C1448.57 107.801 1444.43 106.653 1439.58 106.653C1434.61 106.653 1430.34 107.801 1426.77 110.096C1423.2 112.263 1420.46 115.45 1418.55 119.657C1416.63 123.737 1415.68 128.773 1415.68 134.765C1415.68 140.629 1416.63 145.665 1418.55 149.873C1420.46 154.08 1423.2 157.331 1426.77 159.625C1430.34 161.92 1434.61 163.068 1439.58 163.068ZM1505.8 182V87.7211H1529.7V109.139L1525.88 109.522C1527.54 103.785 1529.96 99.1952 1533.15 95.753C1536.33 92.3108 1540.03 89.8247 1544.24 88.2948C1548.44 86.6375 1552.78 85.8088 1557.24 85.8088C1567.95 85.8088 1576.3 88.8685 1582.29 94.9881C1588.41 100.98 1591.47 109.458 1591.47 120.422V182H1567.57V129.219C1567.57 121.315 1566.17 115.578 1563.36 112.008C1560.56 108.311 1556.16 106.462 1550.17 106.462C1545.58 106.462 1541.75 107.546 1538.69 109.713C1535.76 111.753 1533.53 115.004 1532 119.466C1530.47 123.928 1529.7 129.729 1529.7 136.869V182H1505.8ZM1646.44 183.912C1639.43 183.912 1633.31 182.892 1628.09 180.853C1622.86 178.813 1618.4 176.263 1614.7 173.203C1611.13 170.143 1608.26 167.211 1606.09 164.406L1622.35 150.255C1624.52 153.825 1627.58 157.139 1631.53 160.199C1635.61 163.131 1640.64 164.598 1646.63 164.598C1651.35 164.598 1654.99 163.705 1657.54 161.92C1660.21 160.008 1661.55 157.649 1661.55 154.845C1661.55 152.55 1660.72 150.701 1659.07 149.299C1657.41 147.769 1655.18 146.558 1652.37 145.665C1649.57 144.645 1646.44 143.689 1643 142.797C1639.43 141.777 1635.73 140.629 1631.91 139.355C1628.09 138.08 1624.58 136.422 1621.39 134.382C1618.2 132.215 1615.59 129.474 1613.55 126.159C1611.64 122.845 1610.68 118.701 1610.68 113.729C1610.68 105.442 1613.93 98.749 1620.44 93.6494C1626.94 88.4223 1635.54 85.8088 1646.25 85.8088C1653.77 85.8088 1660.6 87.3386 1666.71 90.3984C1672.83 93.3307 1677.68 97.6016 1681.25 103.211L1666.52 114.876C1664.23 111.179 1661.17 108.438 1657.34 106.653C1653.65 104.741 1649.69 103.785 1645.49 103.785C1641.79 103.785 1638.73 104.486 1636.31 105.888C1634.01 107.291 1632.87 109.203 1632.87 111.625C1632.87 113.283 1633.38 114.685 1634.4 115.833C1635.54 116.98 1637.33 118 1639.75 118.892C1642.3 119.657 1645.61 120.55 1649.69 121.57C1653.52 122.462 1657.47 123.546 1661.55 124.821C1665.63 126.096 1669.46 127.817 1673.03 129.984C1676.6 132.151 1679.46 135.02 1681.63 138.59C1683.8 142.159 1684.88 146.685 1684.88 152.167C1684.88 158.414 1683.29 163.96 1680.1 168.805C1676.91 173.522 1672.45 177.219 1666.71 179.896C1660.98 182.574 1654.22 183.912 1646.44 183.912Z" fill="#3067FF"/>
</svg>
